<?xml version="1.0" standalone="no"?>
<svg xmlns="http://www.w3.org/2000/svg" xmlns:xlink="http://www.w3.org/1999/xlink" width="663pt" height="260pt" viewBox="0.00 0.00 663.48 260.00">
<g id="graph0" class="graph" transform="translate(4,256) scale(1)" data-name="G">

<polygon fill="white" stroke="none" points="-4,4 -4,-256 659.48,-256 659.48,4 -4,4" style=""/>
<!-- SafeMath -->
<g id="node1" class="node" pointer-events="visible" data-name="SafeMath">

<ellipse fill="none" stroke="black" cx="48.58" cy="-234" rx="48.66" ry="18" style=""/>
<text text-anchor="middle" x="48.58" y="-229.8" font-family="Times,serif" font-size="14.00" style="">SafeMath</text>
</g>
<!-- Address -->
<g id="node2" class="node" pointer-events="visible" data-name="Address">

<ellipse fill="none" stroke="black" cx="157.58" cy="-234" rx="42.87" ry="18" style=""/>
<text text-anchor="middle" x="157.58" y="-229.8" font-family="Times,serif" font-size="14.00" style="">Address</text>
</g>
<!-- IERC20 -->
<g id="node3" class="node" pointer-events="visible" data-name="IERC20">

<ellipse fill="none" stroke="black" cx="260.58" cy="-234" rx="42.88" ry="18" style=""/>
<text text-anchor="middle" x="260.58" y="-229.8" font-family="Times,serif" font-size="14.00" style="">IERC20</text>
</g>
<!-- SafeERC20 -->
<g id="node4" class="node" pointer-events="visible" data-name="SafeERC20">

<ellipse fill="none" stroke="black" cx="377.58" cy="-234" rx="56.77" ry="18" style=""/>
<text text-anchor="middle" x="377.58" y="-229.8" font-family="Times,serif" font-size="14.00" style="">SafeERC20</text>
</g>
<!-- ReentrancyGuard -->
<g id="node5" class="node" pointer-events="visible" data-name="ReentrancyGuard">

<ellipse fill="none" stroke="black" cx="466.58" cy="-90" rx="79.28" ry="18" style=""/>
<text text-anchor="middle" x="466.58" y="-85.8" font-family="Times,serif" font-size="14.00" style="">ReentrancyGuard</text>
</g>
<!-- Context -->
<g id="node6" class="node" pointer-events="visible" data-name="Context">

<ellipse fill="none" stroke="black" cx="609.58" cy="-18" rx="41.73" ry="18" style=""/>
<text text-anchor="middle" x="609.58" y="-13.8" font-family="Times,serif" font-size="14.00" style="">Context</text>
</g>
<!-- Ownable -->
<g id="node7" class="node" pointer-events="visible" data-name="Ownable">

<ellipse fill="none" stroke="black" cx="609.58" cy="-90" rx="45.79" ry="18" style=""/>
<text text-anchor="middle" x="609.58" y="-85.8" font-family="Times,serif" font-size="14.00" style="">Ownable</text>
</g>
<!-- Ownable&#45;&gt;Context -->
<g id="edge1" class="edge" data-name="Ownable-&gt;Context">

<path fill="none" stroke="black" d="M609.58,-71.7C609.58,-64.41 609.58,-55.73 609.58,-47.54" style=""/>
<polygon fill="black" stroke="black" points="613.08,-47.62 609.58,-37.62 606.08,-47.62 613.08,-47.62" style=""/>
</g>
<!-- IERC20Staking -->
<g id="node8" class="node" pointer-events="visible" data-name="IERC20Staking">

<ellipse fill="none" stroke="black" cx="537.58" cy="-162" rx="72.4" ry="18" style=""/>
<text text-anchor="middle" x="537.58" y="-157.8" font-family="Times,serif" font-size="14.00" style="">IERC20Staking</text>
</g>
<!-- IERC20Staking&#45;&gt;ReentrancyGuard -->
<g id="edge2" class="edge" data-name="IERC20Staking-&gt;ReentrancyGuard">

<path fill="none" stroke="black" d="M520.39,-144.05C511.76,-135.54 501.13,-125.07 491.61,-115.68" style=""/>
<polygon fill="black" stroke="black" points="494.26,-113.38 484.69,-108.85 489.35,-118.36 494.26,-113.38" style=""/>
</g>
<!-- IERC20Staking&#45;&gt;Ownable -->
<g id="edge3" class="edge" data-name="IERC20Staking-&gt;Ownable">

<path fill="none" stroke="black" d="M555.01,-144.05C564.11,-135.2 575.4,-124.23 585.34,-114.57" style=""/>
<polygon fill="black" stroke="black" points="587.48,-117.36 592.21,-107.88 582.6,-112.35 587.48,-117.36" style=""/>
</g>
<!-- WEBAISTAKING -->
<g id="node9" class="node" pointer-events="visible" data-name="WEBAISTAKING">

<ellipse fill="none" stroke="black" cx="537.58" cy="-234" rx="85.12" ry="18" style=""/>
<text text-anchor="middle" x="537.58" y="-229.8" font-family="Times,serif" font-size="14.00" style="">WEBAISTAKING</text>
</g>
<!-- WEBAISTAKING&#45;&gt;IERC20Staking -->
<g id="edge4" class="edge" data-name="WEBAISTAKING-&gt;IERC20Staking">

<path fill="none" stroke="black" d="M537.58,-215.7C537.58,-208.41 537.58,-199.73 537.58,-191.54" style=""/>
<polygon fill="black" stroke="black" points="541.08,-191.62 537.58,-181.62 534.08,-191.62 541.08,-191.62" style=""/>
</g>
</g>
</svg>